# xmcd
#
# Track frame offsets: 
#        150
#        20180
#        43923
#        62768
#        81643
#        100638
#        116571
#        131511
#        156891
#        170395
#        186984
#        203717
#
# Disc length: 2848 seconds
#
# Revision: 0
# Processed by: cddbd v1.5.2PL0 Copyright (c) Steve Scherf et al.
# Submitted via: ExactAudioCopy v0.95b4
#
DISCID=a90b1e0c
DTITLE=Redlands Palomino Company - Take me home
DYEAR=2007
DGENRE=Country
TTITLE0=Wasted on you
TTITLE1=Take me home
TTITLE2=Coastline
TTITLE3=Please come running
TTITLE4=Burning it down
TTITLE5=Empty feeling
TTITLE6=She is yours
TTITLE7=Harbour lights
TTITLE8=Friend in the dark
TTITLE9=Don't know why
TTITLE10=Pck up, shut up
TTITLE11=Take me home (Reprise)
EXTD=
EXTT0=
EXTT1=
EXTT2=
EXTT3=
EXTT4=
EXTT5=
EXTT6=
EXTT7=
EXTT8=
EXTT9=
EXTT10=
EXTT11=
PLAYORDER=
